<svg width="512" height="512" xmlns="http://www.w3.org/2000/svg">

 <g>
  <title>background</title>
  <rect fill="none" id="canvas_background" height="402" width="582" y="-1" x="-1"/>
 </g>
 <g>
  <title>Layer 1</title>
  <path id="svg_4" fill="#CE1E5C" d="m143.515,337.465l30.69,87.979l-33.77,11.78c-24.29,8.47 -50.85,-4.35 -59.33,-28.65c-1.77,-5.079 -2.61,-10.25 -2.61,-15.34c0,-19.27 12.04,-37.29 31.25,-43.989l33.77,-11.78z"/>
  <polygon id="svg_6" fill="#CE1E5C" points="306.775,280.515 337.465,368.495 262.185,394.755 231.485,306.774      "/>
  <path id="svg_8" fill="#CE1E5C" d="m489.565,266.095c8.47,24.29 -4.351,50.85 -28.65,59.33l-35.47,12.37l-30.69,-87.98l35.47,-12.37c24.3,-8.47 50.86,4.35 59.34,28.65z"/>
  <polygon id="svg_10" fill="#BB242B" points="394.755,249.815 425.445,337.795 337.465,368.495 306.775,280.515      "/>
  <path id="svg_12" fill="#DFA22F" d="m437.225,371.564c8.471,24.29 -4.359,50.86 -28.649,59.33c-5.08,1.771 -10.26,2.61 -15.351,2.61c-19.26,0 -37.279,-12.04 -43.979,-31.25l-11.78,-33.76l87.98,-30.7l11.779,33.77z"/>
  <polygon id="svg_14" fill="#DFA22F" points="368.495,174.535 394.755,249.815 306.775,280.515 280.515,205.225      "/>
  <rect id="svg_16" fill="#62803A" y="99.311" x="262.57" width="93.18" transform="matrix(0.9442,-0.3294,0.3294,0.9442,-30.8024,109.9664) " height="93.169"/>
  <path id="svg_18" fill="#DFA22F" d="m325.425,51.085l12.38,35.48l-87.98,30.69l-12.38,-35.48c-8.47,-24.3 4.35,-50.86 28.65,-59.34c24.29,-8.47 50.85,4.35 59.33,28.65z"/>
  <path id="svg_20" fill="#72C5CD" d="m430.895,103.425c8.471,24.29 -4.35,50.86 -28.64,59.33l-33.76,11.78l-30.69,-87.97l33.761,-11.78c24.289,-8.48 50.859,4.35 59.329,28.64z"/>
  <polygon id="svg_22" fill="#72C5CD" points="280.515,205.225 205.225,231.485 174.535,143.515 249.825,117.255      "/>
  <path id="svg_24" fill="#72C5CD" d="m117.255,262.175l-35.48,12.38c-24.3,8.47 -50.86,-4.35 -59.34,-28.64c-1.77,-5.08 -2.61,-10.26 -2.61,-15.35c0,-19.26 12.04,-37.28 31.26,-43.99l35.48,-12.38l30.69,87.98z"/>
  <polygon id="svg_26" fill="#382538" points="262.185,394.755 174.205,425.444 143.515,337.465 231.485,306.774      "/>
  <polygon id="svg_28" fill="#248C73" points="174.535,143.515 205.225,231.485 117.255,262.175 86.565,174.195      "/>
  <path id="svg_30" fill="#3CB187" d="m274.555,430.225c8.471,24.3 -4.35,50.86 -28.64,59.34c-5.08,1.771 -10.26,2.61 -15.35,2.61c-19.26,0 -37.28,-12.04 -43.99,-31.26l-12.37,-35.471l87.98,-30.689l12.37,35.47z"/>
  <polygon id="svg_32" fill="#3CB187" points="205.225,231.485 231.485,306.774 143.515,337.465 117.255,262.175      "/>
  <path id="svg_34" fill="#3CB187" d="m162.755,109.745l11.78,33.77l-87.97,30.68l-11.78,-33.76c-8.48,-24.29 4.35,-50.85 28.64,-59.33c24.29,-8.47 50.86,4.35 59.33,28.64z"/>
 </g>
</svg>